<svg xmlns="http://www.w3.org/2000/svg" xmlns:xlink="http://www.w3.org/1999/xlink" width="500" zoomAndPan="magnify" viewBox="0 0 375 374.999991" height="500" preserveAspectRatio="xMidYMid meet" version="1.0"><defs><g/><clipPath id="1730014707"><path d="M 141.9375 73.804688 L 233.4375 73.804688 L 233.4375 223.804688 L 141.9375 223.804688 Z M 141.9375 73.804688 " clip-rule="nonzero"/></clipPath></defs><g clip-path="url(#1730014707)"><path fill="#ffffff" d="M 141.9375 112.226562 L 208.363281 73.875 L 208.363281 82.222656 L 148.648438 116.699219 L 148.648438 203.394531 L 141.9375 207.273438 Z M 166.632812 128.691406 L 233.058594 90.339844 L 233.058594 115.316406 L 188.265625 141.175781 L 188.265625 151.238281 L 233.058594 125.375 L 233.058594 150.351562 L 188.265625 176.210938 L 188.265625 186.273438 L 233.058594 160.410156 L 233.058594 185.382812 L 166.632812 223.734375 Z M 166.632812 128.691406 " fill-opacity="1" fill-rule="evenodd"/></g><g fill="#ffffff" fill-opacity="1"><g transform="translate(75.48123, 294.318321)"><g><path d="M 2.25 0 L 2.25 -29.03125 L 22.671875 -29.03125 L 22.671875 -23.484375 L 8.96875 -23.484375 L 8.96875 -17.328125 L 21.046875 -17.328125 L 21.046875 -12.390625 L 8.96875 -12.390625 L 8.96875 -5.59375 L 23.078125 -5.59375 L 23.078125 0 Z M 2.25 0 "/></g></g></g><g fill="#ffffff" fill-opacity="1"><g transform="translate(102.764635, 294.318321)"><g><path d="M 2.25 0 L 2.25 -29.03125 L 10.40625 -29.03125 L 22.21875 -8.359375 L 22.3125 -8.359375 L 22.3125 -29.03125 L 28.90625 -29.03125 L 28.90625 0 L 20.71875 0 L 8.890625 -20.640625 L 8.8125 -20.640625 L 8.8125 0 Z M 2.25 0 "/></g></g></g><g fill="#ffffff" fill-opacity="1"><g transform="translate(137.225533, 294.318321)"><g><path d="M 10.8125 0 L 0.203125 -29.03125 L 7.46875 -29.03125 L 14.796875 -6.15625 L 14.890625 -6.15625 L 22.1875 -29.03125 L 29.4375 -29.03125 L 18.84375 0 Z M 10.8125 0 "/></g></g></g><g fill="#ffffff" fill-opacity="1"><g transform="translate(170.177529, 294.318321)"><g><path d="M 2.25 0 L 2.25 -29.03125 L 9.21875 -29.03125 L 9.21875 0 Z M 2.25 0 "/></g></g></g><g fill="#ffffff" fill-opacity="1"><g transform="translate(184.94111, 294.318321)"><g><path d="M 14.109375 1.015625 C 11.710938 1.015625 9.554688 0.644531 7.640625 -0.09375 C 5.722656 -0.84375 4.171875 -1.945312 2.984375 -3.40625 C 1.804688 -4.863281 1.109375 -6.640625 0.890625 -8.734375 L 7.265625 -9.90625 C 7.472656 -8.164062 8.226562 -6.769531 9.53125 -5.71875 C 10.84375 -4.675781 12.460938 -4.15625 14.390625 -4.15625 C 16.128906 -4.15625 17.503906 -4.515625 18.515625 -5.234375 C 19.523438 -5.960938 20.03125 -6.882812 20.03125 -8 C 20.03125 -8.894531 19.644531 -9.617188 18.875 -10.171875 C 18.113281 -10.734375 16.878906 -11.191406 15.171875 -11.546875 L 11.140625 -12.3125 C 7.929688 -12.9375 5.582031 -13.914062 4.09375 -15.25 C 2.613281 -16.582031 1.875 -18.390625 1.875 -20.671875 C 1.875 -22.578125 2.367188 -24.226562 3.359375 -25.625 C 4.359375 -27.03125 5.734375 -28.117188 7.484375 -28.890625 C 9.234375 -29.671875 11.222656 -30.0625 13.453125 -30.0625 C 15.492188 -30.0625 17.335938 -29.710938 18.984375 -29.015625 C 20.628906 -28.316406 21.972656 -27.34375 23.015625 -26.09375 C 24.066406 -24.84375 24.710938 -23.378906 24.953125 -21.703125 L 18.71875 -20.3125 C 18.53125 -21.726562 17.945312 -22.847656 16.96875 -23.671875 C 15.988281 -24.503906 14.789062 -24.921875 13.375 -24.921875 C 11.957031 -24.921875 10.828125 -24.578125 9.984375 -23.890625 C 9.148438 -23.210938 8.734375 -22.359375 8.734375 -21.328125 C 8.734375 -20.460938 9.078125 -19.769531 9.765625 -19.25 C 10.460938 -18.726562 11.554688 -18.320312 13.046875 -18.03125 L 17.171875 -17.25 C 20.484375 -16.707031 22.914062 -15.742188 24.46875 -14.359375 C 26.019531 -12.972656 26.796875 -11.097656 26.796875 -8.734375 C 26.796875 -6.710938 26.257812 -4.96875 25.1875 -3.5 C 24.113281 -2.039062 22.625 -0.921875 20.71875 -0.140625 C 18.8125 0.628906 16.609375 1.015625 14.109375 1.015625 Z M 14.109375 1.015625 "/></g></g></g><g fill="#ffffff" fill-opacity="1"><g transform="translate(215.65015, 294.318321)"><g><path d="M 2.25 0 L 2.25 -29.03125 L 9.21875 -29.03125 L 9.21875 0 Z M 2.25 0 "/></g></g></g><g fill="#ffffff" fill-opacity="1"><g transform="translate(230.413737, 294.318321)"><g><path d="M 17.296875 1.015625 C 14.054688 1.015625 11.234375 0.367188 8.828125 -0.921875 C 6.421875 -2.210938 4.550781 -4.019531 3.21875 -6.34375 C 1.882812 -8.664062 1.21875 -11.390625 1.21875 -14.515625 C 1.21875 -17.640625 1.882812 -20.363281 3.21875 -22.6875 C 4.550781 -25.019531 6.421875 -26.832031 8.828125 -28.125 C 11.234375 -29.414062 14.054688 -30.0625 17.296875 -30.0625 C 20.554688 -30.0625 23.390625 -29.414062 25.796875 -28.125 C 28.203125 -26.832031 30.070312 -25.019531 31.40625 -22.6875 C 32.738281 -20.363281 33.40625 -17.640625 33.40625 -14.515625 C 33.40625 -11.390625 32.738281 -8.664062 31.40625 -6.34375 C 30.070312 -4.019531 28.203125 -2.210938 25.796875 -0.921875 C 23.390625 0.367188 20.554688 1.015625 17.296875 1.015625 Z M 17.296875 -4.96875 C 19.140625 -4.96875 20.75 -5.363281 22.125 -6.15625 C 23.5 -6.945312 24.554688 -8.0625 25.296875 -9.5 C 26.046875 -10.9375 26.421875 -12.609375 26.421875 -14.515625 C 26.421875 -16.441406 26.046875 -18.125 25.296875 -19.5625 C 24.554688 -21.007812 23.5 -22.128906 22.125 -22.921875 C 20.75 -23.710938 19.140625 -24.109375 17.296875 -24.109375 C 15.472656 -24.109375 13.875 -23.710938 12.5 -22.921875 C 11.125 -22.128906 10.0625 -21.007812 9.3125 -19.5625 C 8.570312 -18.125 8.203125 -16.441406 8.203125 -14.515625 C 8.203125 -12.609375 8.570312 -10.9375 9.3125 -9.5 C 10.0625 -8.0625 11.125 -6.945312 12.5 -6.15625 C 13.875 -5.363281 15.472656 -4.96875 17.296875 -4.96875 Z M 17.296875 -4.96875 "/></g></g></g><g fill="#ffffff" fill-opacity="1"><g transform="translate(268.341034, 294.318321)"><g><path d="M 2.25 0 L 2.25 -29.03125 L 10.40625 -29.03125 L 22.21875 -8.359375 L 22.3125 -8.359375 L 22.3125 -29.03125 L 28.90625 -29.03125 L 28.90625 0 L 20.71875 0 L 8.890625 -20.640625 L 8.8125 -20.640625 L 8.8125 0 Z M 2.25 0 "/></g></g></g><path stroke-linecap="butt" transform="matrix(-0.0293012, -2.402569, 2.402569, -0.0293012, 82.077326, 251.497133)" fill="none" stroke-linejoin="miter" d="M 0.0000310265 1.499379 L 59.724506 1.499378 " stroke="#ffffff" stroke-width="3" stroke-opacity="1" stroke-miterlimit="4"/><path stroke-linecap="butt" transform="matrix(-2.402732, -0.00857611, 0.00857611, -2.402732, 295.017172, 252.803947)" fill="none" stroke-linejoin="miter" d="M -0.000504112 1.500264 L 88.567277 1.499534 " stroke="#ffffff" stroke-width="3" stroke-opacity="1" stroke-miterlimit="4"/><path stroke-linecap="butt" transform="matrix(1.865133, -1.514754, 1.514754, 1.865133, 79.943884, 108.11568)" fill="none" stroke-linejoin="miter" d="M -0.000557532 1.499914 L 56.666266 1.500092 " stroke="#ffffff" stroke-width="3" stroke-opacity="1" stroke-miterlimit="4"/><path stroke-linecap="butt" transform="matrix(1.865133, 1.514754, -1.514754, 1.865133, 186.306657, 19.768788)" fill="none" stroke-linejoin="miter" d="M 0.00018212 1.499809 L 56.653047 1.500495 " stroke="#ffffff" stroke-width="3" stroke-opacity="1" stroke-miterlimit="4"/></svg>